<svg width="15" height="15" viewBox="0 0 15 15" fill="none" xmlns="http://www.w3.org/2000/svg">
<path d="M11.7463 0.626707C10.6664 0.00625288 9.38487 -0.1617 8.18154 0.159525C6.97822 0.48075 5.95088 1.26505 5.32386 2.34117L5.15241 2.63782C5.11521 2.702 5.09103 2.7729 5.08127 2.84644C5.07151 2.91999 5.07636 2.99473 5.09553 3.0664C5.1147 3.13807 5.14783 3.20525 5.19301 3.2641C5.23819 3.32294 5.29454 3.37229 5.35883 3.40933L8.3456 5.12605L6.50819 8.33728C4.87268 8.55046 3.48532 9.61185 2.60553 11.0376C3.02447 10.9433 3.46358 11.0118 3.83386 11.2293C4.65387 10.1307 5.84158 9.42687 7.11502 9.42687C8.38846 9.42687 9.57618 10.1307 10.3951 11.2304C10.7656 11.0127 11.2052 10.9441 11.6245 11.0387C10.7594 9.63441 9.40248 8.58543 7.80081 8.34856L9.32239 5.68663L12.5257 7.52742C12.6549 7.60159 12.8082 7.62163 12.9521 7.58316C13.096 7.5447 13.2189 7.45086 13.2939 7.32214L13.4664 7.02436C13.7755 6.49178 13.9762 5.90333 14.0569 5.29288C14.1376 4.68243 14.0968 4.06205 13.9369 3.46743C13.7769 2.87281 13.5009 2.31571 13.1247 1.82818C12.7486 1.34065 12.2809 0.932323 11.7463 0.626707ZM6.41796 2.7179C6.82975 2.1034 7.42147 1.63125 8.11204 1.36613C8.80262 1.101 9.55828 1.05587 10.2755 1.23692C9.88562 1.43501 9.51287 1.66515 9.1611 1.92496C8.59375 2.35358 8.15498 2.83859 7.70042 3.45557L6.41796 2.7179ZM9.84012 2.82506C10.1537 2.58819 10.5203 2.36937 10.9929 2.13927C11.0538 2.59044 11.0673 2.97733 11.0199 3.35519C10.9568 3.85148 10.7853 4.3692 10.4244 5.02002L8.68511 4.01954C9.06861 3.51197 9.41488 3.14539 9.84012 2.82393M12.5957 6.26639L11.4023 5.5806C11.8196 4.83278 12.0531 4.17407 12.1389 3.49505C12.184 3.13862 12.1851 2.78558 12.158 2.42351C12.5957 2.95268 12.87 3.59766 12.9477 4.27994C13.0254 4.96222 12.9031 5.65237 12.5957 6.26639ZM3.51352 12.5118C3.47498 12.3957 3.39976 12.2953 3.2992 12.2258C3.19864 12.1562 3.07818 12.1212 2.95599 12.126C2.8338 12.1308 2.7165 12.1753 2.62175 12.2526C2.527 12.3299 2.45995 12.4359 2.4307 12.5546C2.28858 13.1321 2.02577 13.4344 1.73815 13.6093C1.43022 13.7954 1.02981 13.8721 0.563968 13.8721C0.414394 13.8721 0.270947 13.9315 0.165182 14.0372C0.0594179 14.143 0 14.2865 0 14.436C0 14.5856 0.0594179 14.7291 0.165182 14.8348C0.270947 14.9406 0.414394 15 0.563968 15C1.13245 15 1.76635 14.9098 2.32129 14.5748C2.59651 14.4078 2.83902 14.1901 3.03866 13.9149C4.12261 15.1331 6.06153 15.1263 7.11615 13.8935C8.18882 15.1489 10.1796 15.1342 11.2512 13.8484C11.545 14.2055 11.9137 14.4938 12.3312 14.6928C12.7486 14.8918 13.2047 14.9967 13.6672 15C13.8168 15 13.9602 14.9406 14.066 14.8348C14.1718 14.7291 14.2312 14.5856 14.2312 14.436C14.2312 14.2865 14.1718 14.143 14.066 14.0372C13.9602 13.9315 13.8168 13.8721 13.6672 13.8721C12.8596 13.8721 12.0554 13.3442 11.7903 12.5174C11.7538 12.4044 11.6826 12.3058 11.5867 12.2356C11.4909 12.1654 11.3754 12.1273 11.2566 12.1267C11.1378 12.1261 11.0219 12.163 10.9253 12.2321C10.8287 12.3013 10.7565 12.3991 10.7188 12.5118C10.1943 14.092 8.15836 14.0649 7.64854 12.5794C7.61018 12.4686 7.53824 12.3725 7.44272 12.3045C7.3472 12.2365 7.23285 12.1999 7.11559 12.1999C6.99832 12.1999 6.88397 12.2365 6.78845 12.3045C6.69293 12.3725 6.62099 12.4686 6.58264 12.5794C6.07168 14.0649 4.03688 14.092 3.51352 12.5118Z" fill="black"/>
</svg>
