<svg width="16" height="12" viewBox="0 0 16 12" fill="none" xmlns="http://www.w3.org/2000/svg">
<path d="M15.3333 4.8H14.5267L12.6393 0.554C12.566 0.389106 12.4464 0.249014 12.2951 0.150688C12.1437 0.0523623 11.9671 2.00562e-05 11.7867 0H3.94667C3.76619 2.00562e-05 3.5896 0.0523623 3.43827 0.150688C3.28693 0.249014 3.16735 0.389106 3.094 0.554L1.20667 4.8H0.4C0.293913 4.8 0.192172 4.84214 0.117157 4.91716C0.0421428 4.99217 0 5.09391 0 5.2C0 5.30609 0.0421428 5.40783 0.117157 5.48284C0.192172 5.55786 0.293913 5.6 0.4 5.6H1.06667V11.0667C1.06667 11.3142 1.165 11.5516 1.34003 11.7266C1.51507 11.9017 1.75246 12 2 12H3.6C3.84754 12 4.08493 11.9017 4.25997 11.7266C4.435 11.5516 4.53333 11.3142 4.53333 11.0667V9.86667H11.2V11.0667C11.2 11.3142 11.2983 11.5516 11.4734 11.7266C11.6484 11.9017 11.8858 12 12.1333 12H13.7333C13.9809 12 14.2183 11.9017 14.3933 11.7266C14.5683 11.5516 14.6667 11.3142 14.6667 11.0667V5.6H15.3333C15.4394 5.6 15.5412 5.55786 15.6162 5.48284C15.6912 5.40783 15.7333 5.30609 15.7333 5.2C15.7333 5.09391 15.6912 4.99217 15.6162 4.91716C15.5412 4.84214 15.4394 4.8 15.3333 4.8ZM3.82467 0.879333C3.83513 0.855712 3.85223 0.835639 3.87389 0.821555C3.89555 0.807471 3.92083 0.799982 3.94667 0.8H11.7867C11.8125 0.799982 11.8378 0.807471 11.8594 0.821555C11.8811 0.835639 11.8982 0.855712 11.9087 0.879333L13.6513 4.8H2.082L3.82467 0.879333ZM3.73333 11.0667C3.73333 11.102 3.71929 11.1359 3.69428 11.1609C3.66928 11.186 3.63536 11.2 3.6 11.2H2C1.96464 11.2 1.93072 11.186 1.90572 11.1609C1.88071 11.1359 1.86667 11.102 1.86667 11.0667V9.86667H3.73333V11.0667ZM13.7333 11.2H12.1333C12.098 11.2 12.0641 11.186 12.0391 11.1609C12.014 11.1359 12 11.102 12 11.0667V9.86667H13.8667V11.0667C13.8667 11.102 13.8526 11.1359 13.8276 11.1609C13.8026 11.186 13.7687 11.2 13.7333 11.2ZM13.8667 9.06667H1.86667V5.6H13.8667V9.06667ZM3.2 7.33333C3.2 7.22725 3.24214 7.12551 3.31716 7.05049C3.39217 6.97548 3.49391 6.93333 3.6 6.93333H4.66667C4.77275 6.93333 4.8745 6.97548 4.94951 7.05049C5.02452 7.12551 5.06667 7.22725 5.06667 7.33333C5.06667 7.43942 5.02452 7.54116 4.94951 7.61618C4.8745 7.69119 4.77275 7.73333 4.66667 7.73333H3.6C3.49391 7.73333 3.39217 7.69119 3.31716 7.61618C3.24214 7.54116 3.2 7.43942 3.2 7.33333ZM10.6667 7.33333C10.6667 7.22725 10.7088 7.12551 10.7838 7.05049C10.8588 6.97548 10.9606 6.93333 11.0667 6.93333H12.1333C12.2394 6.93333 12.3412 6.97548 12.4162 7.05049C12.4912 7.12551 12.5333 7.22725 12.5333 7.33333C12.5333 7.43942 12.4912 7.54116 12.4162 7.61618C12.3412 7.69119 12.2394 7.73333 12.1333 7.73333H11.0667C10.9606 7.73333 10.8588 7.69119 10.7838 7.61618C10.7088 7.54116 10.6667 7.43942 10.6667 7.33333Z" fill="#1F8FB2"/>
</svg>
