<svg width="15" height="12" viewBox="0 0 15 12" fill="none" xmlns="http://www.w3.org/2000/svg">
<path d="M14.375 4.5H13.6187L11.8494 0.519375C11.7806 0.364787 11.6685 0.233451 11.5266 0.14127C11.3848 0.0490896 11.2192 1.88027e-05 11.05 0H3.7C3.53081 1.88027e-05 3.36525 0.0490896 3.22337 0.14127C3.0815 0.233451 2.96939 0.364787 2.90062 0.519375L1.13125 4.5H0.375C0.275544 4.5 0.180161 4.53951 0.109835 4.60984C0.0395088 4.68016 0 4.77554 0 4.875C0 4.97446 0.0395088 5.06984 0.109835 5.14016C0.180161 5.21049 0.275544 5.25 0.375 5.25H1V10.375C1 10.6071 1.09219 10.8296 1.25628 10.9937C1.42038 11.1578 1.64294 11.25 1.875 11.25H3.375C3.60706 11.25 3.82962 11.1578 3.99372 10.9937C4.15781 10.8296 4.25 10.6071 4.25 10.375V9.25H10.5V10.375C10.5 10.6071 10.5922 10.8296 10.7563 10.9937C10.9204 11.1578 11.1429 11.25 11.375 11.25H12.875C13.1071 11.25 13.3296 11.1578 13.4937 10.9937C13.6578 10.8296 13.75 10.6071 13.75 10.375V5.25H14.375C14.4745 5.25 14.5698 5.21049 14.6402 5.14016C14.7105 5.06984 14.75 4.97446 14.75 4.875C14.75 4.77554 14.7105 4.68016 14.6402 4.60984C14.5698 4.53951 14.4745 4.5 14.375 4.5ZM3.58563 0.824375C3.59543 0.80223 3.61147 0.783411 3.63177 0.770208C3.65208 0.757004 3.67578 0.749983 3.7 0.75H11.05C11.0742 0.749983 11.0979 0.757004 11.1182 0.770208C11.1385 0.783411 11.1546 0.80223 11.1644 0.824375L12.7981 4.5H1.95187L3.58563 0.824375ZM3.5 10.375C3.5 10.4082 3.48683 10.4399 3.46339 10.4634C3.43995 10.4868 3.40815 10.5 3.375 10.5H1.875C1.84185 10.5 1.81005 10.4868 1.78661 10.4634C1.76317 10.4399 1.75 10.4082 1.75 10.375V9.25H3.5V10.375ZM12.875 10.5H11.375C11.3418 10.5 11.3101 10.4868 11.2866 10.4634C11.2632 10.4399 11.25 10.4082 11.25 10.375V9.25H13V10.375C13 10.4082 12.9868 10.4399 12.9634 10.4634C12.9399 10.4868 12.9082 10.5 12.875 10.5ZM13 8.5H1.75V5.25H13V8.5ZM3 6.875C3 6.77554 3.03951 6.68016 3.10983 6.60983C3.18016 6.53951 3.27554 6.5 3.375 6.5H4.375C4.47446 6.5 4.56984 6.53951 4.64016 6.60983C4.71049 6.68016 4.75 6.77554 4.75 6.875C4.75 6.97446 4.71049 7.06984 4.64016 7.14017C4.56984 7.21049 4.47446 7.25 4.375 7.25H3.375C3.27554 7.25 3.18016 7.21049 3.10983 7.14017C3.03951 7.06984 3 6.97446 3 6.875ZM10 6.875C10 6.77554 10.0395 6.68016 10.1098 6.60983C10.1802 6.53951 10.2755 6.5 10.375 6.5H11.375C11.4745 6.5 11.5698 6.53951 11.6402 6.60983C11.7105 6.68016 11.75 6.77554 11.75 6.875C11.75 6.97446 11.7105 7.06984 11.6402 7.14017C11.5698 7.21049 11.4745 7.25 11.375 7.25H10.375C10.2755 7.25 10.1802 7.21049 10.1098 7.14017C10.0395 7.06984 10 6.97446 10 6.875Z" fill="white"/>
</svg>
