<svg width="18" height="18" viewBox="0 0 18 18" fill="none" xmlns="http://www.w3.org/2000/svg">
<path d="M9 17C13.4184 17 17 13.4184 17 9C17 4.5816 13.4184 1 9 1C4.5816 1 1 4.5816 1 9C1 13.4184 4.5816 17 9 17Z" stroke="#1F8FB2" stroke-width="1.5" stroke-linecap="round" stroke-linejoin="round"/>
<path d="M11.7998 12.2C11.9059 12.2 12.0076 12.1579 12.0826 12.0829C12.1577 12.0079 12.1998 11.9061 12.1998 11.8C12.1998 11.694 12.1577 11.5922 12.0826 11.5172C12.0076 11.4422 11.9059 11.4 11.7998 11.4C11.6937 11.4 11.592 11.4422 11.517 11.5172C11.4419 11.5922 11.3998 11.694 11.3998 11.8C11.3998 11.9061 11.4419 12.0079 11.517 12.0829C11.592 12.1579 11.6937 12.2 11.7998 12.2ZM6.1998 6.60005C6.30589 6.60005 6.40763 6.55791 6.48265 6.48289C6.55766 6.40788 6.5998 6.30614 6.5998 6.20005C6.5998 6.09396 6.55766 5.99222 6.48265 5.91721C6.40763 5.84219 6.30589 5.80005 6.1998 5.80005C6.09372 5.80005 5.99198 5.84219 5.91696 5.91721C5.84195 5.99222 5.7998 6.09396 5.7998 6.20005C5.7998 6.30614 5.84195 6.40788 5.91696 6.48289C5.99198 6.55791 6.09372 6.60005 6.1998 6.60005Z" stroke="#1F8FB2" stroke-width="1.5" stroke-linecap="round" stroke-linejoin="round"/>
<path d="M12.1998 5.80005L5.7998 12.2" stroke="#1F8FB2" stroke-width="1.5" stroke-linecap="round" stroke-linejoin="round"/>
</svg>
