<svg width="15" height="15" viewBox="0 0 15 15" fill="none" xmlns="http://www.w3.org/2000/svg">
<path fill-rule="evenodd" clip-rule="evenodd" d="M3.13863 7.15116C3.13863 7.43721 2.90142 7.67442 2.61537 7.67442C2.32933 7.67442 2.09212 7.43721 2.09212 7.15116C2.09212 3.96279 4.54793 1.33256 7.67351 1.06744V0.523256C7.67351 0.237209 7.91072 0 8.19677 0C8.48281 0 8.72002 0.237209 8.72002 0.523256V1.06744C11.8456 1.33256 14.3014 3.96279 14.3014 7.15116C14.3014 7.43721 14.0642 7.67442 13.7782 7.67442C13.4921 7.67442 13.2549 7.43721 13.2549 7.15116C13.2549 4.36047 10.9875 2.09302 8.19677 2.09302C5.40607 2.09302 3.13863 4.36047 3.13863 7.15116ZM1.917 8.37209H14.4472C14.7333 8.37209 14.9705 8.6093 14.9705 8.89535C14.9705 9.18139 14.7333 9.4186 14.4472 9.4186H13.2821L11.4751 11.407C10.6798 12.2721 10.2612 12.7256 9.68909 12.9977C9.11002 13.2767 8.48212 13.3186 7.33793 13.3884L5.07049 13.5349C4.60305 13.5628 4.38677 13.5837 4.24026 13.6465C4.10072 13.7093 3.96119 13.8488 3.61235 14.1977L2.96351 14.8465C2.85886 14.9512 2.7263 15 2.59375 15C2.46119 15 2.32863 14.9512 2.22398 14.8465C2.12667 14.748 2.07209 14.6152 2.07209 14.4767C2.07209 14.3383 2.12667 14.2054 2.22398 14.107L2.87282 13.4581C3.25654 13.0744 3.48677 12.8442 3.81468 12.6977C4.13561 12.5512 4.46351 12.5233 5.01468 12.4953L7.28212 12.3488L7.40212 12.3405C8.36909 12.2763 8.86723 12.2428 9.24956 12.0558C9.63468 11.8765 9.97235 11.5081 10.6379 10.7819L10.6658 10.7512L11.8798 9.4186H10.8403L9.74491 10.514C9.70537 10.5512 9.67235 10.5828 9.64584 10.6088C9.61091 10.6443 9.57411 10.6778 9.53561 10.7093C9.24258 10.9674 8.86584 11.1279 8.45421 11.1558C8.40537 11.1628 8.32863 11.1628 8.18212 11.1628H5.74026C5.45421 11.1628 5.217 10.9256 5.217 10.6395C5.217 10.3535 5.45421 10.1163 5.74026 10.1163H7.64491C7.57514 9.77442 7.31002 9.5093 6.96119 9.43954C6.87747 9.4186 6.717 9.4186 6.44491 9.4186H5.90072C5.22398 9.4186 4.88212 9.4186 4.60305 9.48837C4.37979 9.53721 4.18444 9.62093 4.017 9.72558C3.75886 9.87907 3.52165 10.1163 3.04026 10.5977L0.89142 12.7535C0.689094 12.9558 0.35421 12.9558 0.151885 12.7535C0.054573 12.655 0 12.5222 0 12.3837C0 12.2453 0.054573 12.1124 0.151885 12.014L2.30072 9.86512C2.47514 9.6907 2.62165 9.54419 2.75421 9.4186H1.917C1.63095 9.4186 1.39375 9.18139 1.39375 8.89535C1.39375 8.6093 1.63095 8.37209 1.917 8.37209ZM8.967 9.82047L9.01235 9.77442L9.36816 9.4186H8.50305C8.57979 9.57209 8.64258 9.73953 8.67747 9.91395C8.69142 9.94884 8.6984 9.9907 8.6984 10.0256C8.76119 9.9907 8.817 9.95581 8.87282 9.90698C8.90679 9.88108 8.93832 9.85213 8.967 9.82047Z" fill="black"/>
</svg>
