<svg width="124" height="24" viewBox="0 0 124 24" fill="none" xmlns="http://www.w3.org/2000/svg">
<rect width="124" height="24" rx="2" fill="#D9D9D9"/>
<path d="M13.6543 17H12.5059V12.5293H7.43359V17H6.28516V7.19727H7.43359V11.4971H12.5059V7.19727H13.6543V17ZM19 17.1641C17.9655 17.1641 17.1383 16.8382 16.5186 16.1865C15.9033 15.5303 15.5957 14.6621 15.5957 13.582C15.5957 12.4062 15.917 11.488 16.5596 10.8271C17.2021 10.1663 18.0703 9.83594 19.1641 9.83594C20.2077 9.83594 21.0212 10.1572 21.6045 10.7998C22.1924 11.4424 22.4863 12.3333 22.4863 13.4727C22.4863 14.5892 22.1696 15.4847 21.5361 16.1592C20.9072 16.8291 20.0618 17.1641 19 17.1641ZM19.082 10.7793C18.362 10.7793 17.7923 11.0254 17.373 11.5176C16.9538 12.0052 16.7441 12.6797 16.7441 13.541C16.7441 14.3704 16.9561 15.0244 17.3799 15.5029C17.8037 15.9814 18.3711 16.2207 19.082 16.2207C19.8066 16.2207 20.3626 15.986 20.75 15.5166C21.1419 15.0472 21.3379 14.3796 21.3379 13.5137C21.3379 12.6387 21.1419 11.9642 20.75 11.4902C20.3626 11.0163 19.8066 10.7793 19.082 10.7793ZM33.0957 10L30.9971 17H29.835L28.3926 11.9893C28.3379 11.7979 28.3014 11.5814 28.2832 11.3398H28.2559C28.2422 11.5039 28.1943 11.7158 28.1123 11.9756L26.5469 17H25.4258L23.3066 10H24.4824L25.9316 15.2637C25.9772 15.4232 26.0091 15.6328 26.0273 15.8926H26.082C26.0957 15.6921 26.1367 15.4779 26.2051 15.25L27.8184 10H28.8438L30.293 15.2773C30.3385 15.446 30.3727 15.6556 30.3955 15.9062H30.4502C30.4593 15.7285 30.498 15.5189 30.5664 15.2773L31.9883 10H33.0957ZM44.2109 17H43.0898V15.8105H43.0625C42.543 16.7129 41.7409 17.1641 40.6562 17.1641C39.7767 17.1641 39.0726 16.8519 38.5439 16.2275C38.0199 15.5986 37.7578 14.7441 37.7578 13.6641C37.7578 12.5065 38.0495 11.5791 38.6328 10.8818C39.2161 10.1846 39.9932 9.83594 40.9639 9.83594C41.9255 9.83594 42.625 10.2142 43.0625 10.9707H43.0898V6.63672H44.2109V17ZM43.0898 13.835V12.8027C43.0898 12.2376 42.903 11.7591 42.5293 11.3672C42.1556 10.9753 41.6816 10.7793 41.1074 10.7793C40.4238 10.7793 39.8861 11.0299 39.4941 11.5312C39.1022 12.0326 38.9062 12.7253 38.9062 13.6094C38.9062 14.416 39.0931 15.054 39.4668 15.5234C39.8451 15.9883 40.3509 16.2207 40.9844 16.2207C41.6087 16.2207 42.1146 15.9951 42.502 15.5439C42.8939 15.0928 43.0898 14.5231 43.0898 13.835ZM49.4062 17.1641C48.3717 17.1641 47.5446 16.8382 46.9248 16.1865C46.3096 15.5303 46.002 14.6621 46.002 13.582C46.002 12.4062 46.3232 11.488 46.9658 10.8271C47.6084 10.1663 48.4766 9.83594 49.5703 9.83594C50.6139 9.83594 51.4274 10.1572 52.0107 10.7998C52.5986 11.4424 52.8926 12.3333 52.8926 13.4727C52.8926 14.5892 52.5758 15.4847 51.9424 16.1592C51.3135 16.8291 50.4681 17.1641 49.4062 17.1641ZM49.4883 10.7793C48.7682 10.7793 48.1986 11.0254 47.7793 11.5176C47.36 12.0052 47.1504 12.6797 47.1504 13.541C47.1504 14.3704 47.3623 15.0244 47.7861 15.5029C48.21 15.9814 48.7773 16.2207 49.4883 16.2207C50.2129 16.2207 50.7689 15.986 51.1562 15.5166C51.5482 15.0472 51.7441 14.3796 51.7441 13.5137C51.7441 12.6387 51.5482 11.9642 51.1562 11.4902C50.7689 11.0163 50.2129 10.7793 49.4883 10.7793ZM60.3096 13.7803H55.3672C55.3854 14.5596 55.5951 15.1611 55.9961 15.585C56.3971 16.0088 56.9486 16.2207 57.6504 16.2207C58.4388 16.2207 59.1634 15.9609 59.8242 15.4414V16.4941C59.209 16.9408 58.3955 17.1641 57.3838 17.1641C56.3949 17.1641 55.6178 16.8473 55.0527 16.2139C54.4876 15.5758 54.2051 14.6803 54.2051 13.5273C54.2051 12.4382 54.5127 11.5518 55.1279 10.8682C55.7477 10.18 56.5156 9.83594 57.4316 9.83594C58.3477 9.83594 59.0563 10.1322 59.5576 10.7246C60.0589 11.3171 60.3096 12.1396 60.3096 13.1924V13.7803ZM59.1611 12.8301C59.1566 12.1829 58.9993 11.6794 58.6895 11.3193C58.3841 10.9593 57.958 10.7793 57.4111 10.7793C56.8825 10.7793 56.4336 10.9684 56.0645 11.3467C55.6953 11.7249 55.4674 12.2194 55.3809 12.8301H59.1611ZM61.5879 16.7471V15.5439C62.1986 15.9951 62.8708 16.2207 63.6045 16.2207C64.5889 16.2207 65.0811 15.8926 65.0811 15.2363C65.0811 15.0495 65.0378 14.8923 64.9512 14.7646C64.8691 14.6325 64.7552 14.5163 64.6094 14.416C64.4681 14.3158 64.2995 14.2269 64.1035 14.1494C63.9121 14.0674 63.7048 13.9831 63.4814 13.8965C63.1715 13.7734 62.8981 13.6504 62.6611 13.5273C62.4287 13.3997 62.2327 13.2585 62.0732 13.1035C61.9183 12.944 61.7998 12.764 61.7178 12.5635C61.6403 12.363 61.6016 12.1283 61.6016 11.8594C61.6016 11.5312 61.6768 11.2419 61.8271 10.9912C61.9775 10.736 62.1781 10.5241 62.4287 10.3555C62.6794 10.1823 62.9642 10.0524 63.2832 9.96582C63.6068 9.87923 63.9395 9.83594 64.2812 9.83594C64.8874 9.83594 65.4297 9.94076 65.9082 10.1504V11.2852C65.3932 10.9479 64.8008 10.7793 64.1309 10.7793C63.9212 10.7793 63.7321 10.8044 63.5635 10.8545C63.3949 10.9001 63.249 10.9661 63.126 11.0527C63.0075 11.1393 62.9141 11.2441 62.8457 11.3672C62.7819 11.4857 62.75 11.6178 62.75 11.7637C62.75 11.946 62.7819 12.0986 62.8457 12.2217C62.9141 12.3447 63.012 12.4541 63.1396 12.5498C63.2673 12.6455 63.4222 12.7321 63.6045 12.8096C63.7868 12.887 63.9941 12.9714 64.2266 13.0625C64.5365 13.181 64.8145 13.304 65.0605 13.4316C65.3066 13.5547 65.5163 13.696 65.6895 13.8555C65.8626 14.0104 65.9948 14.1904 66.0859 14.3955C66.1816 14.6006 66.2295 14.8444 66.2295 15.127C66.2295 15.4733 66.152 15.7741 65.9971 16.0293C65.8467 16.2845 65.6439 16.4964 65.3887 16.665C65.1335 16.8337 64.8395 16.959 64.5068 17.041C64.1742 17.123 63.8255 17.1641 63.4609 17.1641C62.7409 17.1641 62.1165 17.0251 61.5879 16.7471ZM72.375 8.22266C72.1745 8.22266 72.0036 8.1543 71.8623 8.01758C71.721 7.88086 71.6504 7.70768 71.6504 7.49805C71.6504 7.28841 71.721 7.11523 71.8623 6.97852C72.0036 6.83724 72.1745 6.7666 72.375 6.7666C72.5801 6.7666 72.7533 6.83724 72.8945 6.97852C73.0404 7.11523 73.1133 7.28841 73.1133 7.49805C73.1133 7.69857 73.0404 7.86947 72.8945 8.01074C72.7533 8.15202 72.5801 8.22266 72.375 8.22266ZM72.9219 17H71.8008V10H72.9219V17ZM78.4385 16.9316C78.1742 17.0775 77.8255 17.1504 77.3926 17.1504C76.1667 17.1504 75.5537 16.4668 75.5537 15.0996V10.957H74.3506V10H75.5537V8.29102L76.6748 7.92871V10H78.4385V10.957H76.6748V14.9014C76.6748 15.3708 76.7546 15.7057 76.9141 15.9062C77.0736 16.1068 77.3379 16.207 77.707 16.207C77.9896 16.207 78.2334 16.1296 78.4385 15.9746V16.9316ZM92.5957 10L90.4971 17H89.335L87.8926 11.9893C87.8379 11.7979 87.8014 11.5814 87.7832 11.3398H87.7559C87.7422 11.5039 87.6943 11.7158 87.6123 11.9756L86.0469 17H84.9258L82.8066 10H83.9824L85.4316 15.2637C85.4772 15.4232 85.5091 15.6328 85.5273 15.8926H85.582C85.5957 15.6921 85.6367 15.4779 85.7051 15.25L87.3184 10H88.3438L89.793 15.2773C89.8385 15.446 89.8727 15.6556 89.8955 15.9062H89.9502C89.9593 15.7285 89.998 15.5189 90.0664 15.2773L91.4883 10H92.5957ZM96.8203 17.1641C95.7858 17.1641 94.9587 16.8382 94.3389 16.1865C93.7236 15.5303 93.416 14.6621 93.416 13.582C93.416 12.4062 93.7373 11.488 94.3799 10.8271C95.0225 10.1663 95.8906 9.83594 96.9844 9.83594C98.028 9.83594 98.8415 10.1572 99.4248 10.7998C100.013 11.4424 100.307 12.3333 100.307 13.4727C100.307 14.5892 99.9899 15.4847 99.3564 16.1592C98.7275 16.8291 97.8822 17.1641 96.8203 17.1641ZM96.9023 10.7793C96.1823 10.7793 95.6126 11.0254 95.1934 11.5176C94.7741 12.0052 94.5645 12.6797 94.5645 13.541C94.5645 14.3704 94.7764 15.0244 95.2002 15.5029C95.624 15.9814 96.1914 16.2207 96.9023 16.2207C97.627 16.2207 98.1829 15.986 98.5703 15.5166C98.9622 15.0472 99.1582 14.3796 99.1582 13.5137C99.1582 12.6387 98.9622 11.9642 98.5703 11.4902C98.1829 11.0163 97.627 10.7793 96.9023 10.7793ZM105.748 11.1348C105.552 10.9844 105.27 10.9092 104.9 10.9092C104.422 10.9092 104.021 11.1348 103.697 11.5859C103.378 12.0371 103.219 12.6523 103.219 13.4316V17H102.098V10H103.219V11.4424H103.246C103.406 10.9502 103.649 10.5674 103.978 10.2939C104.306 10.016 104.673 9.87695 105.078 9.87695C105.37 9.87695 105.593 9.90885 105.748 9.97266V11.1348ZM112.775 17H111.203L108.113 13.6367H108.086V17H106.965V6.63672H108.086V13.2061H108.113L111.053 10H112.522L109.275 13.377L112.775 17ZM115.079 14.2793C115.038 14.1608 115.002 14.0081 114.97 13.8213C114.938 13.6299 114.922 13.4408 114.922 13.2539C114.922 12.9622 114.979 12.7002 115.093 12.4678C115.211 12.2308 115.357 12.0098 115.53 11.8047C115.703 11.5996 115.893 11.4036 116.098 11.2168C116.303 11.0254 116.492 10.834 116.665 10.6426C116.838 10.4466 116.982 10.2438 117.096 10.0342C117.214 9.81999 117.273 9.58529 117.273 9.33008C117.273 9.11133 117.23 8.91764 117.144 8.74902C117.062 8.5804 116.948 8.43913 116.802 8.3252C116.656 8.21126 116.487 8.12695 116.296 8.07227C116.104 8.01302 115.902 7.9834 115.688 7.9834C114.917 7.9834 114.25 8.28646 113.685 8.89258V7.68945C114.382 7.25195 115.104 7.0332 115.852 7.0332C116.198 7.0332 116.524 7.07878 116.829 7.16992C117.134 7.26107 117.401 7.39779 117.629 7.58008C117.861 7.75781 118.044 7.98112 118.176 8.25C118.308 8.51888 118.374 8.83105 118.374 9.18652C118.374 9.52376 118.315 9.82454 118.196 10.0889C118.078 10.3532 117.927 10.597 117.745 10.8203C117.567 11.0391 117.374 11.2441 117.164 11.4355C116.954 11.627 116.758 11.8184 116.576 12.0098C116.398 12.1966 116.25 12.3926 116.132 12.5977C116.013 12.8027 115.954 13.0283 115.954 13.2744C115.954 13.484 115.979 13.6755 116.029 13.8486C116.079 14.0173 116.13 14.1608 116.18 14.2793H115.079ZM115.694 17.123C115.494 17.123 115.316 17.0501 115.161 16.9043C115.011 16.7585 114.936 16.5807 114.936 16.3711C114.936 16.1569 115.011 15.9792 115.161 15.8379C115.312 15.6875 115.489 15.6123 115.694 15.6123C115.899 15.6123 116.077 15.6875 116.228 15.8379C116.378 15.9792 116.453 16.1569 116.453 16.3711C116.453 16.5807 116.378 16.7585 116.228 16.9043C116.073 17.0501 115.895 17.123 115.694 17.123Z" fill="black"/>
</svg>
