<svg width="24" height="24" viewBox="0 0 24 24" fill="none" xmlns="http://www.w3.org/2000/svg">
<path d="M15 14L14.507 14.082C14.4951 14.0104 14.4989 13.9371 14.5182 13.8671C14.5375 13.7971 14.5718 13.7322 14.6187 13.6768C14.6656 13.6214 14.724 13.5769 14.7899 13.5464C14.8557 13.5159 14.9274 13.5 15 13.5V14ZM4 14V14.5C3.86739 14.5 3.74021 14.4473 3.64645 14.3536C3.55268 14.2598 3.5 14.1326 3.5 14H4ZM6 3.5H17.36V4.5H6V3.5ZM18.56 14.5H15V13.5H18.56V14.5ZM15.493 13.918L16.299 18.753L15.313 18.918L14.507 14.082L15.493 13.918ZM14.82 20.5H14.607V19.5H14.82V20.5ZM11.694 18.942L9.179 15.168L10.011 14.613L12.526 18.387L11.694 18.942ZM7.93 14.5H4V13.5H7.93V14.5ZM3.5 14V6H4.5V14H3.5ZM19.812 5.51L21.012 11.51L20.032 11.706L18.832 5.706L19.812 5.51ZM9.179 15.168C9.04203 14.9625 8.85546 14.7941 8.63775 14.6775C8.42004 14.561 8.17693 14.5 7.93 14.5V13.5C8.34153 13.5 8.74669 13.6016 9.10954 13.7957C9.47238 13.9899 9.78269 14.2706 10.011 14.613L9.179 15.168ZM16.299 18.753C16.3349 18.9679 16.3235 19.1881 16.2656 19.3982C16.2078 19.6083 16.1048 19.8033 15.964 19.9696C15.8231 20.1359 15.6477 20.2695 15.45 20.3611C15.2522 20.4527 15.0379 20.5001 14.82 20.5V19.5C14.8927 19.5001 14.9635 19.4844 15.0294 19.4539C15.0954 19.4234 15.1539 19.379 15.201 19.3236C15.248 19.2682 15.2824 19.2032 15.3017 19.1331C15.3211 19.0631 15.3249 18.9897 15.313 18.918L16.299 18.753ZM18.56 13.5C18.7819 13.5 19.0011 13.4508 19.2017 13.3559C19.4023 13.2609 19.5793 13.1227 19.72 12.9511C19.8607 12.7795 19.9616 12.5788 20.0154 12.3635C20.0692 12.1482 20.0755 11.9236 20.032 11.706L21.012 11.51C21.0845 11.8726 21.0746 12.2467 20.9851 12.6054C20.8955 12.9641 20.7276 13.2985 20.4932 13.5845C20.2589 13.8705 19.964 14.1009 19.6299 14.2592C19.2958 14.4175 18.9307 14.4998 18.561 14.5L18.56 13.5ZM17.36 3.5C17.9381 3.49989 18.4983 3.70011 18.9454 4.06658C19.3925 4.43306 19.6987 4.94314 19.812 5.51L18.832 5.706C18.764 5.36575 18.5801 5.0596 18.3117 4.8397C18.0433 4.6198 17.707 4.49975 17.36 4.5V3.5ZM14.606 20.5C14.0297 20.5002 13.4623 20.3581 12.9541 20.0863C12.446 19.8145 12.0128 19.4214 11.693 18.942L12.525 18.387C12.7533 18.7294 13.0626 19.0101 13.4255 19.2043C13.7883 19.3984 14.1935 19.5 14.605 19.5L14.606 20.5ZM6 4.5C5.60218 4.5 5.22064 4.65804 4.93934 4.93934C4.65804 5.22064 4.5 5.60218 4.5 6H3.5C3.5 5.33696 3.76339 4.70107 4.23223 4.23223C4.70107 3.76339 5.33696 3.5 6 3.5V4.5Z" fill="#067CFF"/>
<path d="M8 14V4" stroke="#067CFF"/>
</svg>
