<svg width="16" height="13" viewBox="0 0 16 13" fill="none" xmlns="http://www.w3.org/2000/svg">
<path d="M12.4423 7.26953C11.9364 7.26953 11.4419 7.41954 11.0213 7.70058C10.6007 7.98162 10.2729 8.38108 10.0793 8.84844C9.88572 9.31579 9.83507 9.83006 9.93376 10.3262C10.0325 10.8223 10.276 11.2781 10.6337 11.6358C10.9914 11.9935 11.4472 12.2371 11.9433 12.3358C12.4395 12.4345 12.9537 12.3838 13.4211 12.1902C13.8885 11.9966 14.2879 11.6688 14.569 11.2482C14.85 10.8276 15 10.3331 15 9.82722C14.9979 9.14954 14.7277 8.50021 14.2485 8.02101C13.7693 7.54182 13.12 7.27166 12.4423 7.26953ZM3.55769 7.26953C3.05183 7.26953 2.55733 7.41954 2.13672 7.70058C1.71611 7.98162 1.38828 8.38108 1.19469 8.84844C1.00111 9.31579 0.950457 9.83006 1.04915 10.3262C1.14784 10.8223 1.39143 11.2781 1.74913 11.6358C2.10683 11.9935 2.56257 12.2371 3.05871 12.3358C3.55486 12.4345 4.06912 12.3838 4.53648 12.1902C5.00384 11.9966 5.40329 11.6688 5.68434 11.2482C5.96538 10.8276 6.11539 10.3331 6.11539 9.82722C6.11326 9.14954 5.8431 8.50021 5.3639 8.02101C4.8847 7.54182 4.23538 7.27166 3.55769 7.26953Z" stroke="black" stroke-miterlimit="10"/>
<path d="M8.00004 9.69257V6.79834L5.84619 5.38488L8.5385 2.42334L9.88465 4.84642H11.7693" stroke="black" stroke-linecap="round" stroke-linejoin="round"/>
<path d="M10.1594 0.5H10.1643C10.2016 0.499702 10.2392 0.502728 10.2756 0.509766L10.3821 0.541992C10.4166 0.556181 10.4498 0.57409 10.4807 0.594727L10.5667 0.665039C10.6193 0.717841 10.6616 0.780567 10.6897 0.849609C10.7038 0.884202 10.714 0.920522 10.7209 0.957031L10.7307 1.06836V1.07715C10.7312 1.15282 10.7164 1.22782 10.6877 1.29785C10.6734 1.3328 10.6558 1.36614 10.635 1.39746L10.5637 1.48535C10.5368 1.51231 10.5073 1.53659 10.4758 1.55762L10.3762 1.61035C10.3062 1.63923 10.2312 1.65456 10.1555 1.6543L10.0422 1.64258C9.96822 1.62753 9.89788 1.59783 9.83521 1.55566L9.74829 1.4834C9.66744 1.40204 9.61291 1.29937 9.59106 1.18848L9.58032 1.0752C9.58068 0.960625 9.61514 0.849655 9.67798 0.755859L9.75024 0.667969C9.77704 0.641339 9.80682 0.617486 9.83813 0.59668L9.93774 0.542969C9.97269 0.528621 10.0093 0.517981 10.0461 0.510742L10.1594 0.5Z" stroke="black"/>
</svg>
