<svg width="15" height="14" viewBox="0 0 15 14" fill="none" xmlns="http://www.w3.org/2000/svg">
<path d="M7.02495 13.9695C6.18261 13.804 5.34114 13.5267 4.50054 13.1375C3.65993 12.7483 2.90754 12.2067 2.24335 11.5125C1.57917 10.8183 1.03894 9.96303 0.622676 8.94658C0.206409 7.93013 -0.00114832 6.71332 4.77802e-06 5.29617V5.15607C4.77802e-06 4.99867 0.0484348 4.87183 0.145295 4.77555C0.241578 4.67869 0.368419 4.63026 0.525816 4.63026H0.632189C1.23411 4.63026 1.94902 4.77382 2.77695 5.06094C3.60545 5.34806 4.30855 5.70119 4.88625 6.12034C4.95601 5.15347 5.17337 4.14394 5.53832 3.09174C5.90328 2.03954 6.37288 1.09832 6.94712 0.268095C7.07569 0.0893649 7.23251 0 7.41758 0C7.60265 0 7.75947 0.0893649 7.88804 0.268095C8.46228 1.09832 8.93188 2.0453 9.29684 3.10903C9.66179 4.17219 9.87915 5.1872 9.94891 6.15407C10.4932 5.76778 11.1683 5.4256 11.9743 5.12753C12.7803 4.82945 13.5123 4.66369 14.1701 4.63026L14.3223 4.61382C14.4722 4.60287 14.6008 4.65072 14.708 4.75738C14.8147 4.86462 14.8625 4.99319 14.8516 5.14309L14.8352 5.32903C14.7573 6.45791 14.5691 7.47782 14.2704 8.38877C13.9718 9.30029 13.5567 10.1086 13.0251 10.8137C12.4929 11.5188 11.84 12.1242 11.0663 12.6299C10.2925 13.1355 9.39572 13.5541 8.3758 13.8856C8.18842 13.9478 7.96328 13.9845 7.70038 13.9954C7.43747 14.0064 7.21262 13.9977 7.02582 13.9695M7.70643 13.2024C7.54846 10.8241 6.83152 9.01894 5.55562 7.78685C4.27972 6.55477 2.71958 5.79431 0.875204 5.50546C0.846377 5.50546 0.846377 5.50546 0.875204 5.50546C1.03375 7.94137 1.77231 9.77191 3.09088 10.9971C4.40944 12.2222 5.94825 12.9573 7.7073 13.2024C7.73612 13.2168 7.73612 13.2205 7.7073 13.2136C7.67847 13.2067 7.67847 13.2029 7.7073 13.2024M5.73118 6.71621C6.05289 6.98372 6.36394 7.31437 6.66432 7.70816C6.9647 8.10251 7.21579 8.48015 7.41758 8.84107C7.61188 8.48015 7.86123 8.10251 8.16565 7.70816C8.46949 7.3138 8.78227 6.98315 9.10398 6.71621C9.09764 5.83928 8.94658 4.91507 8.65082 3.94359C8.35562 2.97268 7.94454 2.0453 7.41758 1.16146C6.89119 2.0453 6.48011 2.97009 6.18434 3.9358C5.88858 4.90152 5.73752 5.82832 5.73118 6.71621ZM7.86988 9.85983C8.04285 10.3211 8.18497 10.7866 8.29624 11.2565C8.40751 11.7264 8.49947 12.2787 8.57212 12.9135C9.23515 12.6846 9.87713 12.3779 10.4981 11.9933C11.119 11.6088 11.6716 11.1199 12.1559 10.5266C12.6402 9.93334 13.0461 9.22621 13.3736 8.4052C13.7011 7.5842 13.8968 6.61762 13.9608 5.50546C13.9608 5.47663 13.9608 5.47663 13.9608 5.50546C12.5615 5.70725 11.3168 6.19933 10.2265 6.98171C9.13627 7.76408 8.35072 8.72346 7.86988 9.85983Z" fill="black"/>
</svg>
