<svg width="15" height="12" viewBox="0 0 15 12" fill="none" xmlns="http://www.w3.org/2000/svg">
<path d="M1 11V7.5C1.00157 6.97005 1.21278 6.46225 1.58752 6.08752C1.96225 5.71278 2.47005 5.50157 3 5.5H12C12.53 5.50157 13.0377 5.71278 13.4125 6.08752C13.7872 6.46225 13.9984 6.97005 14 7.5V11M11.5 5.5H2.5V2.25C2.50099 1.91878 2.633 1.60142 2.86721 1.36721C3.10142 1.133 3.41878 1.00099 3.75 1H11.25C11.5812 1.00099 11.8986 1.133 12.1328 1.36721C12.367 1.60142 12.499 1.91878 12.5 2.25V5.5H11.5Z" stroke="white" stroke-linecap="round" stroke-linejoin="round"/>
<path d="M1 11V10.75C1.00058 10.5513 1.07978 10.3608 1.22031 10.2203C1.36083 10.0798 1.55127 10.0006 1.75 10H13.25C13.4487 10.0006 13.6392 10.0798 13.7797 10.2203C13.9202 10.3608 13.9994 10.5513 14 10.75V11M3 5.5V5C3.00074 4.73501 3.10634 4.48109 3.29371 4.29371C3.48109 4.10634 3.73501 4.00074 4 4H6.5C6.76499 4.00074 7.01891 4.10634 7.20629 4.29371C7.39366 4.48109 7.49926 4.73501 7.5 5M7.5 5V5.5M7.5 5C7.50074 4.73501 7.60634 4.48109 7.79371 4.29371C7.98109 4.10634 8.23501 4.00074 8.5 4H11C11.265 4.00074 11.5189 4.10634 11.7063 4.29371C11.8937 4.48109 11.9993 4.73501 12 5V5.5" stroke="white" stroke-linecap="round" stroke-linejoin="round"/>
</svg>
