<svg width="21" height="21" viewBox="0 0 21 21" fill="none" xmlns="http://www.w3.org/2000/svg">
<path d="M8.5 18.5H12.5M10.5 2.5V1.5M15.5 4.5L16.5 3.5M5.5 4.5L4.5 3.5M15.5 13.5L16.5 14.5M5.5 13.5L4.5 14.5M3.5 8.5H2.5M18.5 8.5H17.5M10.5 5C11.5153 4.99938 12.501 5.34213 13.2969 5.97255C14.0928 6.60297 14.6521 7.48401 14.8839 8.4725C15.1157 9.46099 15.0064 10.4988 14.5738 11.4174C14.1412 12.3359 13.4107 13.0811 12.501 13.532L12.5 14.5C12.5 15.0304 12.2893 15.5391 11.9142 15.9142C11.5391 16.2893 11.0304 16.5 10.5 16.5C9.96957 16.5 9.46086 16.2893 9.08579 15.9142C8.71071 15.5391 8.5 15.0304 8.5 14.5V13.532C7.59036 13.0812 6.85989 12.336 6.42727 11.4176C5.99465 10.4992 5.88531 9.46142 6.117 8.47299C6.3487 7.48455 6.90783 6.60351 7.70354 5.97301C8.49925 5.34251 9.48478 4.9996 10.5 5Z" stroke="black" stroke-linecap="round" stroke-linejoin="round"/>
</svg>
