<svg width="14" height="9" viewBox="0 0 14 9" fill="none" xmlns="http://www.w3.org/2000/svg">
<path d="M2.25 6.25V3.25H3.5V2.25H0V3.25H1.25V6.25H2.25ZM9.17134 6.25L9.875 5.16744L10.5787 6.25H11.7713L10.4713 4.25L11.7713 2.25H10.5787L9.875 3.33256L9.17134 2.25H7.97866L9.27866 4.25L7.97866 6.25H9.17134ZM12.5 2.25H13.5V6.25H12.5V2.25ZM0 0H13.5V1H0V0ZM0 7.5H13.5V8.5H0V7.5ZM6.29178 5.5L6.54178 6.25H7.59587L6.2625 2.25H4.8265L3.59403 6.25H4.64041L4.87166 5.5H6.29178ZM5.55375 3.28581L5.95847 4.5H5.17963L5.55375 3.28581Z" fill="white"/>
</svg>
