<svg width="15" height="14" viewBox="0 0 15 14" fill="none" xmlns="http://www.w3.org/2000/svg">
<path fill-rule="evenodd" clip-rule="evenodd" d="M11.9722 1.55556C11.9722 1.96811 11.8083 2.36378 11.5166 2.6555C11.2249 2.94722 10.8292 3.11111 10.4167 3.11111C10.0041 3.11111 9.60845 2.94722 9.31672 2.6555C9.025 2.36378 8.86111 1.96811 8.86111 1.55556C8.86111 1.143 9.025 0.747335 9.31672 0.455612C9.60845 0.163888 10.0041 0 10.4167 0C10.8292 0 11.2249 0.163888 11.5166 0.455612C11.8083 0.747335 11.9722 1.143 11.9722 1.55556ZM11.1944 1.55556C11.1944 1.76184 11.1125 1.95967 10.9666 2.10553C10.8208 2.25139 10.6229 2.33333 10.4167 2.33333C10.2104 2.33333 10.0126 2.25139 9.8667 2.10553C9.72083 1.95967 9.63889 1.76184 9.63889 1.55556C9.63889 1.34928 9.72083 1.15145 9.8667 1.00558C10.0126 0.859722 10.2104 0.777778 10.4167 0.777778C10.6229 0.777778 10.8208 0.859722 10.9666 1.00558C11.1125 1.15145 11.1944 1.34928 11.1944 1.55556ZM2.44444 8.55556C2.44444 8.34928 2.52639 8.15145 2.67225 8.00558C2.81811 7.85972 3.01594 7.77778 3.22222 7.77778H4.38889C4.59517 7.77778 4.793 7.85972 4.93886 8.00558C5.08472 8.15145 5.16667 8.34928 5.16667 8.55556V9.33333H6.33333C6.53961 9.33333 6.73744 9.41528 6.88331 9.56114C7.02917 9.707 7.11111 9.90483 7.11111 10.1111V13.2222C7.11111 13.4285 7.02917 13.6263 6.88331 13.7722C6.73744 13.9181 6.53961 14 6.33333 14H1.27778C1.0715 14 0.873667 13.9181 0.727806 13.7722C0.581944 13.6263 0.5 13.4285 0.5 13.2222V10.1111C0.5 9.90483 0.581944 9.707 0.727806 9.56114C0.873667 9.41528 1.0715 9.33333 1.27778 9.33333H2.44444V8.55556ZM1.27778 13.2222V10.1111H2.05556V13.2222H1.27778ZM4.38889 8.55556V9.33333H3.22222V8.55556H4.38889ZM4.77778 10.1111H2.83333V13.2222H4.77778V10.1111ZM5.55556 10.1111V13.2222H6.33333V10.1111H5.55556Z" fill="white"/>
<path d="M12.9445 6.22222C12.9445 6.01594 12.8626 5.81811 12.7167 5.67225C12.5709 5.52639 12.373 5.44444 12.1667 5.44444V7C12.373 7 12.5709 6.91805 12.7167 6.77219C12.8626 6.62633 12.9445 6.4285 12.9445 6.22222Z" fill="white"/>
<path fill-rule="evenodd" clip-rule="evenodd" d="M9.05561 14C8.74619 14 8.44944 13.8771 8.23065 13.6583C8.01186 13.4395 7.88894 13.1427 7.88894 12.8333V6.22222H5.9445C5.63508 6.22222 5.33833 6.0993 5.11954 5.88051C4.90075 5.66172 4.77783 5.36497 4.77783 5.05555C4.77783 4.74613 4.90075 4.44939 5.11954 4.23059C5.33833 4.0118 5.63508 3.88889 5.9445 3.88889H12.5618C12.9947 3.88889 14.5001 4.41933 14.5001 6.05539C14.5001 7.35388 13.5523 8.16589 12.9445 8.44589V12.8333C12.9445 13.1427 12.8216 13.4395 12.6028 13.6583C12.384 13.8771 12.0873 14 11.7778 14C11.4684 14 11.1717 13.8771 10.9529 13.6583C10.7341 13.4395 10.6112 13.1427 10.6112 12.8333V9.72222H10.2223V12.8333C10.2223 13.1059 10.1289 13.3568 9.97183 13.5555C9.86265 13.694 9.72348 13.806 9.56478 13.883C9.40608 13.96 9.232 14 9.05561 14ZM12.1667 7.94772L12.619 7.73927C13.0639 7.53433 13.7223 6.94322 13.7223 6.05539C13.7223 5.51327 13.487 5.18505 13.2136 4.97077C13.0808 4.86755 12.9332 4.78495 12.7757 4.72577C12.7076 4.69902 12.6368 4.67947 12.5646 4.66744C12.5594 4.66692 12.5583 4.66666 12.5614 4.66666H5.9445C5.84136 4.66666 5.74244 4.70764 5.66951 4.78057C5.59658 4.8535 5.55561 4.95241 5.55561 5.05555C5.55561 5.15869 5.59658 5.25761 5.66951 5.33054C5.74244 5.40347 5.84136 5.44444 5.9445 5.44444H8.66672V12.8333C8.66672 12.9365 8.70769 13.0354 8.78062 13.1083C8.85355 13.1812 8.95247 13.2222 9.05561 13.2222C9.15875 13.2222 9.25767 13.1812 9.3306 13.1083C9.40353 13.0354 9.4445 12.9365 9.4445 12.8333V8.94444H11.3889V12.8333C11.3889 12.9365 11.4299 13.0354 11.5028 13.1083C11.5758 13.1812 11.6747 13.2222 11.7778 13.2222C11.881 13.2222 11.9799 13.1812 12.0528 13.1083C12.1257 13.0354 12.1667 12.9365 12.1667 12.8333V7.94772Z" fill="white"/>
</svg>
