<svg width="17" height="18" viewBox="0 0 17 18" fill="none" xmlns="http://www.w3.org/2000/svg">
<path d="M16 17C15.525 7.667 1.475 7.667 1 17M11.5 4C11.5 4.79565 11.1839 5.55871 10.6213 6.12132C10.0587 6.68393 9.29565 7 8.5 7C7.70435 7 6.94129 6.68393 6.37868 6.12132C5.81607 5.55871 5.5 4.79565 5.5 4C5.5 3.20435 5.81607 2.44129 6.37868 1.87868C6.94129 1.31607 7.70435 1 8.5 1C9.29565 1 10.0587 1.31607 10.6213 1.87868C11.1839 2.44129 11.5 3.20435 11.5 4Z" stroke="black" stroke-width="1.5" stroke-linecap="round" stroke-linejoin="round"/>
</svg>
