<svg xmlns:xlink="http://www.w3.org/1999/xlink" xmlns="http://www.w3.org/2000/svg" viewBox="0 0 24 24" width="24" height="24" ><path d="M5.361 6.625a6.75 6.75 0 0 0 7.413 6.721 6.93 6.93 0 0 0 6.087-6.988V2.125a1.5 1.5 0 0 0-2.4-1.2l-1.8 1.35h.9L13.461.7c-.8-.6-1.9-.6-2.7 0l-2.1 1.575h.9l-1.8-1.35a1.5 1.5 0 0 0-2.4 1.2zm1.5 0v-4.5l1.8 1.35c.267.2.633.2.9 0l2.1-1.575a.75.75 0 0 1 .9 0l2.1 1.575c.267.2.633.2.9 0l1.8-1.35V6.37a5.43 5.43 0 0 1-4.754 5.486 5.25 5.25 0 0 1-5.746-5.23zm4.5 6v10.5a.75.75 0 0 0 1.5 0v-10.5a.75.75 0 0 0-1.5 0m-5.359 3.811c1.473.285 2.458 1.077 2.374 1.51-.084.432-1.292.801-2.765.516-1.473-.284-2.458-1.076-2.374-1.51.084-.432 1.292-.8 2.765-.516m.285-1.473c-2.179-.42-4.233.206-4.523 1.705s1.383 2.846 3.562 3.267 4.233-.205 4.523-1.705-1.383-2.846-3.562-3.267m14.699 2.09c.084.434-.9 1.226-2.374 1.51-1.473.285-2.681-.084-2.765-.516-.084-.433.9-1.226 2.374-1.51 1.473-.285 2.681.084 2.765.517zm1.473-.284c-.29-1.5-2.344-2.126-4.523-1.705s-3.851 1.767-3.562 3.267 2.344 2.126 4.523 1.705 3.852-1.767 3.562-3.267" fill="#1A1A1A"></path></svg>