<svg width="20" height="20" viewBox="0 0 20 20" fill="none" xmlns="http://www.w3.org/2000/svg">
<path d="M1.75 18.25H18.25V1.75H1.75V18.25ZM19.75 18.4004L19.7432 18.5332C19.7125 18.8423 19.5761 19.1329 19.3545 19.3545C19.1329 19.5761 18.8423 19.7125 18.5332 19.7432L18.4004 19.75H1.59961C1.24171 19.7499 0.898591 19.6076 0.645508 19.3545C0.392425 19.1014 0.250104 18.7583 0.25 18.4004V1.59961C0.250103 1.24171 0.392426 0.89859 0.645508 0.645508L0.744141 0.555664C0.98429 0.358842 1.2864 0.25009 1.59961 0.25H18.4004L18.5332 0.256836C18.7982 0.283111 19.0499 0.386841 19.2559 0.555664L19.3545 0.645508L19.4443 0.744141C19.6412 0.984291 19.7499 1.2864 19.75 1.59961V18.4004Z" fill="#1D9D39"/>
<path d="M5.42323 3.51944C5.68837 3.20159 6.16078 3.15888 6.47889 3.42374C6.7971 3.68891 6.84074 4.16217 6.57557 4.48038L6.57459 4.4794C6.57239 4.48214 6.56868 4.48758 6.56287 4.49503C6.55047 4.51094 6.53033 4.53806 6.50428 4.57413C6.45208 4.64643 6.37714 4.7569 6.29237 4.89932C6.12128 5.18674 5.91848 5.59395 5.78455 6.07608C5.5233 7.01688 5.51567 8.24751 6.57557 9.51944C8.01547 11.2473 8.0232 13.0169 7.65955 14.3261C7.48098 14.9688 7.21499 15.4993 6.99549 15.8681C6.88511 16.0535 6.7841 16.2011 6.70936 16.3046C6.67212 16.3561 6.64146 16.3973 6.61854 16.4267C6.60718 16.4412 6.59739 16.4529 6.59022 16.4618C6.58661 16.4663 6.5829 16.4706 6.58045 16.4735C6.57934 16.4749 6.57838 16.4764 6.57752 16.4774L6.57557 16.4794C6.57278 16.4775 6.53565 16.4468 5.9994 15.9999L5.84119 15.8681L6.57557 16.4804C6.31038 16.7985 5.83711 16.8412 5.51893 16.5761C5.20103 16.3111 5.15779 15.8386 5.42225 15.5204L5.43494 15.5048C5.44735 15.4889 5.46749 15.4618 5.49354 15.4257C5.54575 15.3534 5.62155 15.2431 5.70643 15.1005C5.87749 14.8131 6.08034 14.4058 6.21424 13.9237C6.47545 12.983 6.4829 11.7522 5.42323 10.4804C3.98333 8.7525 3.97559 6.98287 4.33924 5.67374C4.51781 5.03108 4.78382 4.50049 5.0033 4.13175C5.11364 3.9464 5.21375 3.79867 5.28846 3.69522C5.32584 3.64347 5.35729 3.60262 5.38026 3.57315C5.39168 3.5585 5.40139 3.5469 5.40858 3.538L5.4203 3.52237L5.42225 3.52139V3.52042C5.42248 3.52014 5.42307 3.51971 5.85877 3.88272L5.42323 3.51944ZM9.42323 3.51944C9.68837 3.20159 10.1608 3.15888 10.4789 3.42374C10.7971 3.68891 10.8407 4.16217 10.5756 4.48038L10.5746 4.4794C10.5724 4.48214 10.5687 4.48758 10.5629 4.49503C10.5505 4.51094 10.5303 4.53806 10.5043 4.57413C10.4521 4.64643 10.3771 4.7569 10.2924 4.89932C10.1213 5.18674 9.91848 5.59395 9.78455 6.07608C9.5233 7.01688 9.51567 8.24751 10.5756 9.51944C12.0155 11.2473 12.0232 13.0169 11.6596 14.3261C11.481 14.9688 11.215 15.4993 10.9955 15.8681C10.8851 16.0535 10.7841 16.2011 10.7094 16.3046C10.6721 16.3561 10.6415 16.3973 10.6185 16.4267C10.6072 16.4412 10.5974 16.4529 10.5902 16.4618C10.5866 16.4663 10.5829 16.4706 10.5805 16.4735C10.5793 16.4749 10.5784 16.4764 10.5775 16.4774L10.5756 16.4794C10.5728 16.4775 10.5356 16.4468 9.9994 15.9999L9.8412 15.8681L10.5756 16.4804C10.3104 16.7985 9.83711 16.8412 9.51893 16.5761C9.20103 16.3111 9.15779 15.8386 9.42225 15.5204L9.43495 15.5048C9.44735 15.4889 9.46749 15.4618 9.49354 15.4257C9.54575 15.3534 9.62155 15.2431 9.70643 15.1005C9.87749 14.8131 10.0803 14.4058 10.2142 13.9237C10.4754 12.983 10.4829 11.7522 9.42323 10.4804C7.98333 8.7525 7.97559 6.98287 8.33924 5.67374C8.51781 5.03108 8.78382 4.50049 9.0033 4.13175C9.11364 3.9464 9.21375 3.79867 9.28846 3.69522C9.32584 3.64347 9.35729 3.60262 9.38026 3.57315C9.39168 3.5585 9.40139 3.5469 9.40858 3.538L9.4203 3.52237L9.42225 3.52139V3.52042C9.42248 3.52014 9.42307 3.51971 9.85877 3.88272L9.42323 3.51944ZM13.4232 3.51944C13.6884 3.20159 14.1608 3.15888 14.4789 3.42374C14.7971 3.68891 14.8407 4.16217 14.5756 4.48038L14.5746 4.4794C14.5724 4.48214 14.5687 4.48758 14.5629 4.49503C14.5505 4.51094 14.5303 4.53806 14.5043 4.57413C14.4521 4.64643 14.3771 4.7569 14.2924 4.89932C14.1213 5.18674 13.9185 5.59395 13.7846 6.07608C13.5233 7.01688 13.5157 8.24751 14.5756 9.51944C16.0155 11.2473 16.0232 13.0169 15.6596 14.3261C15.481 14.9688 15.215 15.4993 14.9955 15.8681C14.8851 16.0535 14.7841 16.2011 14.7094 16.3046C14.6721 16.3561 14.6415 16.3973 14.6185 16.4267C14.6072 16.4412 14.5974 16.4529 14.5902 16.4618C14.5866 16.4663 14.5829 16.4706 14.5805 16.4735C14.5793 16.4749 14.5784 16.4764 14.5775 16.4774L14.5756 16.4794C14.5728 16.4775 14.5357 16.4468 13.9994 15.9999L13.8412 15.8681L14.5756 16.4804C14.3104 16.7985 13.8371 16.8412 13.5189 16.5761C13.201 16.3111 13.1578 15.8386 13.4222 15.5204L13.4349 15.5048C13.4474 15.4889 13.4675 15.4618 13.4935 15.4257C13.5457 15.3534 13.6216 15.2431 13.7064 15.1005C13.8775 14.8131 14.0803 14.4058 14.2142 13.9237C14.4754 12.983 14.4829 11.7522 13.4232 10.4804C11.9833 8.7525 11.9756 6.98287 12.3392 5.67374C12.5178 5.03108 12.7838 4.50049 13.0033 4.13175C13.1136 3.9464 13.2137 3.79867 13.2885 3.69522C13.3258 3.64347 13.3573 3.60262 13.3803 3.57315C13.3917 3.5585 13.4014 3.5469 13.4086 3.538L13.4203 3.52237L13.4222 3.52139V3.52042C13.4225 3.52014 13.4231 3.51971 13.8588 3.88272L13.4232 3.51944Z" fill="#1D9D39"/>
</svg>
