<svg width="352" height="352" viewBox="0 0 352 352" fill="none" xmlns="http://www.w3.org/2000/svg">
<path d="M23.5871 2C23.5871 28.6571 23.5871 47.9444 23.5871 59.8619C23.5871 69.3158 23.5871 81.4606 49.2214 81.4606C96.7082 81.4606 291.141 79.6256 329.03 79.6256C342.784 79.6256 349.352 84.1136 349.352 95.7415C349.352 109.198 349.352 204.002 349.352 204.002C348.619 219.848 341.589 220.037 324.414 220.037C275.708 220.037 71.7408 220.037 33.7846 220.037C25.0674 220.037 17.7404 227.237 17.7404 241.382C17.7404 255.526 17.7404 275.925 17.7404 299.053C17.7404 307.64 17.7404 320.169 17.7404 336.638" stroke="#E9F0FA" stroke-width="4" stroke-linecap="round" stroke-dasharray="6 6"/>
<g filter="url(#filter0_d_226_294)">
<path d="M257.265 112.947C275.077 112.947 289.517 98.507 289.517 80.6948C289.517 62.8825 275.077 48.4429 257.265 48.4429C239.452 48.4429 225.013 62.8825 225.013 80.6948C225.013 98.507 239.452 112.947 257.265 112.947Z" fill="black"/>
</g>
<path d="M257.265 112.947C275.077 112.947 289.517 98.507 289.517 80.6948C289.517 62.8825 275.077 48.4429 257.265 48.4429C239.452 48.4429 225.013 62.8825 225.013 80.6948C225.013 98.507 239.452 112.947 257.265 112.947Z" fill="white"/>
<path d="M262.586 62.2034H250.223C248.174 62.2034 246.514 63.8536 246.514 65.8893V92.9195C246.514 94.9552 248.174 96.6054 250.223 96.6054H262.586C264.634 96.6054 266.295 94.9552 266.295 92.9195V65.8893C266.295 63.8536 264.634 62.2034 262.586 62.2034ZM253.824 64.7835H258.984C259.697 64.7835 260.274 65.3611 260.274 66.0736C260.274 66.7861 259.697 67.3637 258.984 67.3637H253.824C253.112 67.3637 252.534 66.7861 252.534 66.0736C252.534 65.3611 253.112 64.7835 253.824 64.7835ZM256.834 94.0253C255.409 94.0253 254.254 92.8701 254.254 91.4451C254.254 90.0201 255.409 88.8649 256.834 88.8649C258.259 88.8649 259.414 90.0201 259.414 91.4451C259.414 92.8701 258.259 94.0253 256.834 94.0253ZM263.715 87.1448H249.094V69.9438H263.715V87.1448Z" fill="#383838"/>
<path d="M260.985 74.8425C260.752 74.6179 260.381 74.6179 260.148 74.8425L255.323 79.4007C255.297 79.4304 255.258 79.4475 255.218 79.4475C255.178 79.4475 255.14 79.4304 255.114 79.4007L252.66 77.0525C252.427 76.828 252.056 76.828 251.823 77.0525L250.986 77.8537C250.876 77.9555 250.813 78.0981 250.813 78.2473C250.813 78.3966 250.876 78.5391 250.986 78.641L254.821 82.2461C255.054 82.4707 255.425 82.4707 255.658 82.2461L261.822 76.4171C261.932 76.3153 261.994 76.1727 261.994 76.0235C261.994 75.8743 261.932 75.7317 261.822 75.6298L260.985 74.8425Z" fill="#0AB21B"/>
<g filter="url(#filter1_d_226_294)">
<path d="M121.377 112.946C139.189 112.946 153.629 98.5068 153.629 80.6945C153.629 62.8823 139.189 48.4426 121.377 48.4426C103.565 48.4426 89.125 62.8823 89.125 80.6945C89.125 98.5068 103.565 112.946 121.377 112.946Z" fill="black"/>
</g>
<path d="M121.377 112.946C139.189 112.946 153.629 98.5068 153.629 80.6945C153.629 62.8823 139.189 48.4426 121.377 48.4426C103.565 48.4426 89.125 62.8823 89.125 80.6945C89.125 98.5068 103.565 112.946 121.377 112.946Z" fill="white"/>
<path d="M137.719 66.9337H105.037C102.662 66.9337 100.736 68.859 100.736 71.234V91.8752C100.736 94.2502 102.662 96.1754 105.037 96.1754H137.719C140.093 96.1754 142.019 94.2502 142.019 91.8752V71.234C142.019 68.859 140.093 66.9337 137.719 66.9337Z" stroke="#383838" stroke-width="3"/>
<path d="M141.159 73.8138H100.736" stroke="#383838" stroke-width="3" stroke-linecap="square"/>
<path d="M105.036 71.6638C105.749 71.6638 106.326 71.0862 106.326 70.3737C106.326 69.6612 105.749 69.0836 105.036 69.0836C104.324 69.0836 103.746 69.6612 103.746 70.3737C103.746 71.0862 104.324 71.6638 105.036 71.6638Z" fill="#383838"/>
<path d="M108.477 71.6638C109.189 71.6638 109.767 71.0862 109.767 70.3737C109.767 69.6612 109.189 69.0836 108.477 69.0836C107.764 69.0836 107.187 69.6612 107.187 70.3737C107.187 71.0862 107.764 71.6638 108.477 71.6638Z" fill="#383838"/>
<path d="M111.917 71.6638C112.63 71.6638 113.207 71.0862 113.207 70.3737C113.207 69.6612 112.63 69.0836 111.917 69.0836C111.205 69.0836 110.627 69.6612 110.627 70.3737C110.627 71.0862 111.205 71.6638 111.917 71.6638Z" fill="#383838"/>
<path d="M127.972 83.5551L126.63 80.0674C126.274 79.1486 125.42 78.5464 124.471 78.5444H118.284C117.335 78.5464 116.481 79.1486 116.125 80.0674L114.797 83.5704C113.855 83.9009 113.217 84.8177 113.207 85.8549V89.5101C113.207 90.183 113.73 90.7285 114.374 90.7285V91.9469C114.374 92.6198 114.897 93.1653 115.541 93.1653C116.186 93.1653 116.709 92.6198 116.709 91.9469V90.7285H126.046V91.9469C126.046 92.6198 126.569 93.1653 127.214 93.1653C127.858 93.1653 128.381 92.6198 128.381 91.9469V90.7285C129.025 90.7285 129.548 90.183 129.548 89.5101V85.8549C129.546 84.816 128.913 83.8927 127.972 83.5551Z" fill="#003580"/>
<path d="M117.641 80.9812C117.8 80.5488 118.182 80.2655 118.608 80.2645H124.148C124.573 80.2655 124.955 80.5488 125.115 80.9812L126.108 83.7047H116.647L117.641 80.9812Z" fill="white"/>
<path d="M116.217 87.145C115.504 87.145 114.927 86.5674 114.927 85.8549C114.927 85.1424 115.504 84.5648 116.217 84.5648C116.929 84.5648 117.507 85.1424 117.507 85.8549C117.507 86.5674 116.929 87.145 116.217 87.145Z" fill="#FEBB02"/>
<path d="M125.248 85.8549C125.248 85.1424 125.826 84.5648 126.538 84.5648C127.251 84.5648 127.828 85.1424 127.828 85.8549C127.828 86.5674 127.251 87.145 126.538 87.145C125.826 87.145 125.248 86.5674 125.248 85.8549Z" fill="#FEBB02"/>
<g filter="url(#filter2_d_226_294)">
<path d="M257.265 252.275C275.077 252.275 289.517 237.835 289.517 220.023C289.517 202.211 275.077 187.771 257.265 187.771C239.452 187.771 225.013 202.211 225.013 220.023C225.013 237.835 239.452 252.275 257.265 252.275Z" fill="black"/>
</g>
<path d="M257.265 252.275C275.077 252.275 289.517 237.835 289.517 220.023C289.517 202.211 275.077 187.771 257.265 187.771C239.452 187.771 225.013 202.211 225.013 220.023C225.013 237.835 239.452 252.275 257.265 252.275Z" fill="white"/>
<path d="M256.995 205.718C259.168 205.718 260.929 204.01 260.929 201.904C260.929 199.799 259.168 198.091 256.995 198.091C254.822 198.091 253.061 199.799 253.061 201.904C253.061 204.01 254.822 205.718 256.995 205.718Z" fill="#003580"/>
<path d="M263.365 208.183C263.365 208.183 259.527 207.412 257.099 207.412C254.67 207.412 250.832 208.183 250.832 208.183C249.265 208.568 249.148 209.492 249.265 210.494L250.597 222.241C250.643 222.623 250.823 222.977 251.106 223.243L251.811 223.936C252.102 224.211 252.283 224.58 252.32 224.976L253.73 239.766C253.812 240.656 254.584 241.331 255.493 241.307H258.704C259.613 241.331 260.385 240.656 260.467 239.766L261.799 224.976C261.836 224.58 262.017 224.211 262.308 223.936L263.013 223.243C263.296 222.977 263.476 222.623 263.522 222.241L264.932 210.494C265.05 209.492 264.971 208.568 263.405 208.183H263.365Z" fill="#003580"/>
<path d="M269.62 217.235H244.794V219.701H269.62V217.235Z" fill="white" stroke="#FEBB02" stroke-width="6"/>
<g filter="url(#filter3_d_226_294)">
<path d="M121.377 252.275C139.189 252.275 153.629 237.835 153.629 220.023C153.629 202.211 139.189 187.771 121.377 187.771C103.565 187.771 89.125 202.211 89.125 220.023C89.125 237.835 103.565 252.275 121.377 252.275Z" fill="black"/>
</g>
<path d="M121.377 252.275C139.189 252.275 153.629 237.835 153.629 220.023C153.629 202.211 139.189 187.771 121.377 187.771C103.565 187.771 89.125 202.211 89.125 220.023C89.125 237.835 103.565 252.275 121.377 252.275Z" fill="white"/>
<path d="M108.906 203.252V236.794H111.4V227.21H118.883V236.794H123.871V227.21H131.354V236.794H133.848V203.252H108.906ZM116.647 225.054H111.486V220.023H116.647V225.054ZM116.647 217.507H111.486V212.476H116.647V217.507ZM116.647 210.799H111.486V205.767H116.647V210.799ZM124.387 225.054H119.227V220.023H124.387V225.054ZM124.387 217.507H119.227V212.476H124.387V217.507ZM124.387 210.799H119.227V205.767H124.387V210.799ZM131.268 225.054H126.107V220.023H131.268V225.054ZM131.268 217.507H126.107V212.476H131.268V217.507ZM131.268 210.799H126.107V205.767H131.268V210.799Z" fill="#003580"/>
<g filter="url(#filter4_d_226_294)">
<path d="M18.6005 340C23.3504 340 27.201 336.15 27.201 331.4C27.201 326.65 23.3504 322.799 18.6005 322.799C13.8506 322.799 10 326.65 10 331.4C10 336.15 13.8506 340 18.6005 340Z" fill="black"/>
</g>
<path d="M18.6005 340C23.3504 340 27.201 336.15 27.201 331.4C27.201 326.65 23.3504 322.799 18.6005 322.799C13.8506 322.799 10 326.65 10 331.4C10 336.15 13.8506 340 18.6005 340Z" fill="#077812"/>
<defs>
<filter id="filter0_d_226_294" x="215.013" y="40.4429" width="84.5039" height="84.5038" filterUnits="userSpaceOnUse" color-interpolation-filters="sRGB">
<feFlood flood-opacity="0" result="BackgroundImageFix"/>
<feColorMatrix in="SourceAlpha" type="matrix" values="0 0 0 0 0 0 0 0 0 0 0 0 0 0 0 0 0 0 127 0" result="hardAlpha"/>
<feOffset dy="2"/>
<feGaussianBlur stdDeviation="5"/>
<feColorMatrix type="matrix" values="0 0 0 0 0 0 0 0 0 0 0 0 0 0 0 0 0 0 0.0731714 0"/>
<feBlend mode="normal" in2="BackgroundImageFix" result="effect1_dropShadow_226_294"/>
<feBlend mode="normal" in="SourceGraphic" in2="effect1_dropShadow_226_294" result="shape"/>
</filter>
<filter id="filter1_d_226_294" x="79.125" y="40.4426" width="84.5039" height="84.5038" filterUnits="userSpaceOnUse" color-interpolation-filters="sRGB">
<feFlood flood-opacity="0" result="BackgroundImageFix"/>
<feColorMatrix in="SourceAlpha" type="matrix" values="0 0 0 0 0 0 0 0 0 0 0 0 0 0 0 0 0 0 127 0" result="hardAlpha"/>
<feOffset dy="2"/>
<feGaussianBlur stdDeviation="5"/>
<feColorMatrix type="matrix" values="0 0 0 0 0 0 0 0 0 0 0 0 0 0 0 0 0 0 0.0731714 0"/>
<feBlend mode="normal" in2="BackgroundImageFix" result="effect1_dropShadow_226_294"/>
<feBlend mode="normal" in="SourceGraphic" in2="effect1_dropShadow_226_294" result="shape"/>
</filter>
<filter id="filter2_d_226_294" x="215.013" y="179.771" width="84.5039" height="84.5038" filterUnits="userSpaceOnUse" color-interpolation-filters="sRGB">
<feFlood flood-opacity="0" result="BackgroundImageFix"/>
<feColorMatrix in="SourceAlpha" type="matrix" values="0 0 0 0 0 0 0 0 0 0 0 0 0 0 0 0 0 0 127 0" result="hardAlpha"/>
<feOffset dy="2"/>
<feGaussianBlur stdDeviation="5"/>
<feColorMatrix type="matrix" values="0 0 0 0 0 0 0 0 0 0 0 0 0 0 0 0 0 0 0.0731714 0"/>
<feBlend mode="normal" in2="BackgroundImageFix" result="effect1_dropShadow_226_294"/>
<feBlend mode="normal" in="SourceGraphic" in2="effect1_dropShadow_226_294" result="shape"/>
</filter>
<filter id="filter3_d_226_294" x="79.125" y="179.771" width="84.5039" height="84.5038" filterUnits="userSpaceOnUse" color-interpolation-filters="sRGB">
<feFlood flood-opacity="0" result="BackgroundImageFix"/>
<feColorMatrix in="SourceAlpha" type="matrix" values="0 0 0 0 0 0 0 0 0 0 0 0 0 0 0 0 0 0 127 0" result="hardAlpha"/>
<feOffset dy="2"/>
<feGaussianBlur stdDeviation="5"/>
<feColorMatrix type="matrix" values="0 0 0 0 0 0 0 0 0 0 0 0 0 0 0 0 0 0 0.0731714 0"/>
<feBlend mode="normal" in2="BackgroundImageFix" result="effect1_dropShadow_226_294"/>
<feBlend mode="normal" in="SourceGraphic" in2="effect1_dropShadow_226_294" result="shape"/>
</filter>
<filter id="filter4_d_226_294" x="0" y="314.799" width="37.2012" height="37.201" filterUnits="userSpaceOnUse" color-interpolation-filters="sRGB">
<feFlood flood-opacity="0" result="BackgroundImageFix"/>
<feColorMatrix in="SourceAlpha" type="matrix" values="0 0 0 0 0 0 0 0 0 0 0 0 0 0 0 0 0 0 127 0" result="hardAlpha"/>
<feOffset dy="2"/>
<feGaussianBlur stdDeviation="5"/>
<feColorMatrix type="matrix" values="0 0 0 0 0 0 0 0 0 0 0 0 0 0 0 0 0 0 0.0731714 0"/>
<feBlend mode="normal" in2="BackgroundImageFix" result="effect1_dropShadow_226_294"/>
<feBlend mode="normal" in="SourceGraphic" in2="effect1_dropShadow_226_294" result="shape"/>
</filter>
</defs>
</svg>
